<?xml version="1.0" encoding="UTF-8" standalone="no"?>
<!-- Created with Inkscape (http://www.inkscape.org/) -->

<svg
   xmlns:dc="http://purl.org/dc/elements/1.1/"
   xmlns:cc="http://creativecommons.org/ns#"
   xmlns:rdf="http://www.w3.org/1999/02/22-rdf-syntax-ns#"
   xmlns:svg="http://www.w3.org/2000/svg"
   xmlns="http://www.w3.org/2000/svg"
   xmlns:sodipodi="http://sodipodi.sourceforge.net/DTD/sodipodi-0.dtd"
   xmlns:inkscape="http://www.inkscape.org/namespaces/inkscape"
   width="450"
   height="720"
   id="svg2"
   version="1.1"
   inkscape:version="0.47 r22583"
   sodipodi:docname="calvinisme_title.pdf">
  <sodipodi:namedview
     id="base"
     pagecolor="#ffffff"
     bordercolor="#666666"
     borderopacity="1.0"
     inkscape:pageopacity="0.0"
     inkscape:pageshadow="2"
     inkscape:zoom="0.9899495"
     inkscape:cx="285.11873"
     inkscape:cy="380.64535"
     inkscape:document-units="px"
     inkscape:current-layer="layer1"
     showgrid="false"
     inkscape:window-width="1280"
     inkscape:window-height="995"
     inkscape:window-x="1280"
     inkscape:window-y="0"
     inkscape:window-maximized="1"
     units="in" />
  <defs
     id="defs4">
    <inkscape:perspective
       sodipodi:type="inkscape:persp3d"
       inkscape:vp_x="0 : 500 : 1"
       inkscape:vp_y="0 : 1000 : 0"
       inkscape:vp_z="1300 : 500 : 1"
       inkscape:persp3d-origin="650 : 333.33333 : 1"
       id="perspective3698" />
    <clipPath
       id="clipPath3467"
       clipPathUnits="userSpaceOnUse">
      <path
         id="path3469"
         d="m -0.0584,0 0,0.0025 0.0044,0 0,-0.0025 -0.0044,0"
         inkscape:connector-curvature="0" />
    </clipPath>
    <clipPath
       id="clipPath3459"
       clipPathUnits="userSpaceOnUse">
      <path
         id="path3461"
         d="m -2.83232,-4.40764 12.43808,0 0,5.59068 -12.43808,0 0,-5.59068 z"
         inkscape:connector-curvature="0" />
    </clipPath>
    <clipPath
       id="clipPath3449"
       clipPathUnits="userSpaceOnUse">
      <path
         id="path3451"
         d="M 0,0 852,0 852,672 0,672 0,0 z"
         inkscape:connector-curvature="0" />
    </clipPath>
    <clipPath
       id="clipPath3439"
       clipPathUnits="userSpaceOnUse">
      <path
         id="path3441"
         d="m 194.012,529.5 68.5,0 0,120.5 -68.5,0 0,-120.5 z"
         inkscape:connector-curvature="0" />
    </clipPath>
    <clipPath
       id="clipPath3419"
       clipPathUnits="userSpaceOnUse">
      <path
         id="path3421"
         d="m -0.0846,-0.2324 0,0.0046 0.0055,0 0,-0.0046 -0.0055,0"
         inkscape:connector-curvature="0" />
    </clipPath>
    <clipPath
       id="clipPath3411"
       clipPathUnits="userSpaceOnUse">
      <path
         id="path3413"
         d="m -0.48458,-1.25688 9.27782,0 0,6.16514 -9.27782,0 0,-6.16514 z"
         inkscape:connector-curvature="0" />
    </clipPath>
    <clipPath
       id="clipPath3401"
       clipPathUnits="userSpaceOnUse">
      <path
         id="path3403"
         d="M 0,0 852,0 852,672 0,672 0,0 z"
         inkscape:connector-curvature="0" />
    </clipPath>
    <clipPath
       id="clipPath3391"
       clipPathUnits="userSpaceOnUse">
      <path
         id="path3393"
         d="m 44.5,137 91.832,0 0,109 -91.832,0 0,-109 z"
         inkscape:connector-curvature="0" />
    </clipPath>
    <clipPath
       id="clipPath3375"
       clipPathUnits="userSpaceOnUse">
      <path
         id="path3377"
         d="m -1.7338,-7.04333 12.064,0 0,8.59926 -12.064,0 0,-8.59926 z"
         inkscape:connector-curvature="0" />
    </clipPath>
    <clipPath
       id="clipPath3365"
       clipPathUnits="userSpaceOnUse">
      <path
         id="path3367"
         d="M 0,0 852,0 852,672 0,672 0,0 z"
         inkscape:connector-curvature="0" />
    </clipPath>
    <clipPath
       id="clipPath3355"
       clipPathUnits="userSpaceOnUse">
      <path
         id="path3357"
         d="m 122.512,550.456 70.488,0 0,78.044 -70.488,0 0,-78.044 z"
         inkscape:connector-curvature="0" />
    </clipPath>
    <clipPath
       id="clipPath3341"
       clipPathUnits="userSpaceOnUse">
      <path
         id="path3343"
         d="m -3.73027,-7.19451 12.06404,0 0,8.76068 -12.06404,0 0,-8.76068 z"
         inkscape:connector-curvature="0" />
    </clipPath>
    <clipPath
       id="clipPath3331"
       clipPathUnits="userSpaceOnUse">
      <path
         id="path3333"
         d="M 0,0 852,0 852,672 0,672 0,0 z"
         inkscape:connector-curvature="0" />
    </clipPath>
    <clipPath
       id="clipPath3321"
       clipPathUnits="userSpaceOnUse">
      <path
         id="path3323"
         d="m 263.512,550.456 70.488,0 0,78.044 -70.488,0 0,-78.044 z"
         inkscape:connector-curvature="0" />
    </clipPath>
    <clipPath
       id="clipPath3305"
       clipPathUnits="userSpaceOnUse">
      <path
         id="path3307"
         d="m -0.0286,-0.0097 0,0.0016 0.0024,0 0,-0.0016 -0.0024,0"
         inkscape:connector-curvature="0" />
    </clipPath>
    <clipPath
       id="clipPath3297"
       clipPathUnits="userSpaceOnUse">
      <path
         id="path3299"
         d="m -0.12125,-0.07634 2.32152,0 0,1.15266 -2.32152,0 0,-1.15266 z"
         inkscape:connector-curvature="0" />
    </clipPath>
    <clipPath
       id="clipPath3287"
       clipPathUnits="userSpaceOnUse">
      <path
         id="path3289"
         d="M 0,0 852,0 852,672 0,672 0,0 z"
         inkscape:connector-curvature="0" />
    </clipPath>
    <clipPath
       id="clipPath3277"
       clipPathUnits="userSpaceOnUse">
      <path
         id="path3279"
         d="m 44.5,44.5 367,0 0,583 -367,0 0,-583 z"
         inkscape:connector-curvature="0" />
    </clipPath>
    <clipPath
       id="clipPath3263"
       clipPathUnits="userSpaceOnUse">
      <path
         id="path3265"
         clip-rule="evenodd"
         d="m 625.588,116.709 108.5,0 c 5.247,0 9.5,-4.253 9.5,-9.5 0,-5.247 -4.253,-9.5 -9.5,-9.5 l -217,0 c -5.247,0 -9.5,4.253 -9.5,9.5 0,5.247 4.253,9.5 9.5,9.5"
         inkscape:connector-curvature="0" />
    </clipPath>
    <clipPath
       id="clipPath3047"
       clipPathUnits="userSpaceOnUse">
      <path
         id="path3049"
         clip-rule="evenodd"
         d="m 625.588,116.209 108.5,0 c 4.971,0 9,-4.029 9,-9 0,-4.971 -4.029,-9 -9,-9 l -217,0 c -4.971,0 -9,4.029 -9,9 0,4.971 4.029,9 9,9"
         inkscape:connector-curvature="0" />
    </clipPath>
    <clipPath
       id="clipPath3033"
       clipPathUnits="userSpaceOnUse">
      <path
         id="path3035"
         d="m -0.025,-0.0126 0,0.0016 0.0024,0 0,-0.0016 -0.0024,0"
         inkscape:connector-curvature="0" />
    </clipPath>
    <clipPath
       id="clipPath3025"
       clipPathUnits="userSpaceOnUse">
      <path
         id="path3027"
         d="m -1.18973,-0.08109 2.31336,0 0,1.15581 -2.31336,0 0,-1.15581 z"
         inkscape:connector-curvature="0" />
    </clipPath>
    <clipPath
       id="clipPath3015"
       clipPathUnits="userSpaceOnUse">
      <path
         id="path3017"
         d="M 0,0 852,0 852,672 0,672 0,0 z"
         inkscape:connector-curvature="0" />
    </clipPath>
    <clipPath
       id="clipPath3005"
       clipPathUnits="userSpaceOnUse">
      <path
         id="path3007"
         d="m 439.5,45.5 367,0 0,583 -367,0 0,-583 z"
         inkscape:connector-curvature="0" />
    </clipPath>
    <filter
       id="filter4351"
       inkscape:label="Drop shadow"
       width="1.5"
       height="1.5"
       x="-0.25"
       y="-0.25"
       color-interpolation-filters="sRGB">
      <feGaussianBlur
         id="feGaussianBlur4353"
         in="SourceAlpha"
         stdDeviation="0.4"
         result="blur" />
      <feColorMatrix
         id="feColorMatrix4355"
         result="bluralpha"
         type="matrix"
         values="1 0 0 0 0 0 1 0 0 0 0 0 1 0 0 0 0 0 0.7 0 " />
      <feOffset
         id="feOffset4357"
         in="bluralpha"
         dx="0"
         dy="3"
         result="offsetBlur" />
      <feMerge
         id="feMerge4359">
        <feMergeNode
           id="feMergeNode4361"
           in="offsetBlur" />
        <feMergeNode
           id="feMergeNode4363"
           in="SourceGraphic" />
      </feMerge>
    </filter>
    <filter
       id="filter4365"
       inkscape:label="Drop shadow"
       width="1.5"
       height="1.5"
       x="-0.25"
       y="-0.25"
       color-interpolation-filters="sRGB">
      <feGaussianBlur
         id="feGaussianBlur4367"
         in="SourceAlpha"
         stdDeviation="0.4"
         result="blur" />
      <feColorMatrix
         id="feColorMatrix4369"
         result="bluralpha"
         type="matrix"
         values="1 0 0 0 0 0 1 0 0 0 0 0 1 0 0 0 0 0 0.7 0 " />
      <feOffset
         id="feOffset4371"
         in="bluralpha"
         dx="0"
         dy="3"
         result="offsetBlur" />
      <feMerge
         id="feMerge4373">
        <feMergeNode
           id="feMergeNode4375"
           in="offsetBlur" />
        <feMergeNode
           id="feMergeNode4377"
           in="SourceGraphic" />
      </feMerge>
    </filter>
    <filter
       id="filter4477"
       inkscape:label="Drop shadow"
       width="1.5"
       height="1.5"
       x="-0.25"
       y="-0.25"
       color-interpolation-filters="sRGB">
      <feGaussianBlur
         id="feGaussianBlur4479"
         in="SourceAlpha"
         stdDeviation="0.4"
         result="blur" />
      <feColorMatrix
         id="feColorMatrix4481"
         result="bluralpha"
         type="matrix"
         values="1 0 0 0 0 0 1 0 0 0 0 0 1 0 0 0 0 0 0.8 0 " />
      <feOffset
         id="feOffset4483"
         in="bluralpha"
         dx="-2"
         dy="-2"
         result="offsetBlur" />
      <feMerge
         id="feMerge4485">
        <feMergeNode
           id="feMergeNode4487"
           in="offsetBlur" />
        <feMergeNode
           id="feMergeNode4489"
           in="SourceGraphic" />
      </feMerge>
    </filter>
    <filter
       id="filter4505"
       inkscape:label="Drop shadow"
       width="1.5"
       height="1.5"
       x="-0.25"
       y="-0.25"
       color-interpolation-filters="sRGB">
      <feGaussianBlur
         id="feGaussianBlur4507"
         in="SourceAlpha"
         stdDeviation="0.4"
         result="blur" />
      <feColorMatrix
         id="feColorMatrix4509"
         result="bluralpha"
         type="matrix"
         values="1 0 0 0 0 0 1 0 0 0 0 0 1 0 0 0 0 0 0.8 0 " />
      <feOffset
         id="feOffset4511"
         in="bluralpha"
         dx="-2"
         dy="-2"
         result="offsetBlur" />
      <feMerge
         id="feMerge4513">
        <feMergeNode
           id="feMergeNode4515"
           in="offsetBlur" />
        <feMergeNode
           id="feMergeNode4517"
           in="SourceGraphic" />
      </feMerge>
    </filter>
    <filter
       id="filter4519"
       inkscape:label="Drop shadow"
       width="1.5"
       height="1.5"
       x="-0.25"
       y="-0.25"
       color-interpolation-filters="sRGB">
      <feGaussianBlur
         id="feGaussianBlur4521"
         in="SourceAlpha"
         stdDeviation="0.4"
         result="blur" />
      <feColorMatrix
         id="feColorMatrix4523"
         result="bluralpha"
         type="matrix"
         values="1 0 0 0 0 0 1 0 0 0 0 0 1 0 0 0 0 0 0.8 0 " />
      <feOffset
         id="feOffset4525"
         in="bluralpha"
         dx="2"
         dy="2"
         result="offsetBlur" />
      <feMerge
         id="feMerge4527">
        <feMergeNode
           id="feMergeNode4529"
           in="offsetBlur" />
        <feMergeNode
           id="feMergeNode4531"
           in="SourceGraphic" />
      </feMerge>
    </filter>
    <filter
       id="filter4533"
       inkscape:label="Drop shadow"
       width="1.5"
       height="1.5"
       x="-0.25"
       y="-0.25"
       color-interpolation-filters="sRGB">
      <feGaussianBlur
         id="feGaussianBlur4535"
         in="SourceAlpha"
         stdDeviation="0.4"
         result="blur" />
      <feColorMatrix
         id="feColorMatrix4537"
         result="bluralpha"
         type="matrix"
         values="1 0 0 0 0 0 1 0 0 0 0 0 1 0 0 0 0 0 0.8 0 " />
      <feOffset
         id="feOffset4539"
         in="bluralpha"
         dx="2"
         dy="2"
         result="offsetBlur" />
      <feMerge
         id="feMerge4541">
        <feMergeNode
           id="feMergeNode4543"
           in="offsetBlur" />
        <feMergeNode
           id="feMergeNode4545"
           in="SourceGraphic" />
      </feMerge>
    </filter>
    <filter
       id="filter4547"
       inkscape:label="Drop shadow"
       width="1.5"
       height="1.5"
       x="-0.25"
       y="-0.25"
       color-interpolation-filters="sRGB">
      <feGaussianBlur
         id="feGaussianBlur4549"
         in="SourceAlpha"
         stdDeviation="0.4"
         result="blur" />
      <feColorMatrix
         id="feColorMatrix4551"
         result="bluralpha"
         type="matrix"
         values="1 0 0 0 0 0 1 0 0 0 0 0 1 0 0 0 0 0 0.8 0 " />
      <feOffset
         id="feOffset4553"
         in="bluralpha"
         dx="2"
         dy="2"
         result="offsetBlur" />
      <feMerge
         id="feMerge4555">
        <feMergeNode
           id="feMergeNode4557"
           in="offsetBlur" />
        <feMergeNode
           id="feMergeNode4559"
           in="SourceGraphic" />
      </feMerge>
    </filter>
    <filter
       id="filter4561"
       inkscape:label="Drop shadow"
       width="1.5"
       height="1.5"
       x="-0.25"
       y="-0.25"
       color-interpolation-filters="sRGB">
      <feGaussianBlur
         id="feGaussianBlur4563"
         in="SourceAlpha"
         stdDeviation="0.4"
         result="blur" />
      <feColorMatrix
         id="feColorMatrix4565"
         result="bluralpha"
         type="matrix"
         values="1 0 0 0 0 0 1 0 0 0 0 0 1 0 0 0 0 0 0.8 0 " />
      <feOffset
         id="feOffset4567"
         in="bluralpha"
         dx="2"
         dy="2"
         result="offsetBlur" />
      <feMerge
         id="feMerge4569">
        <feMergeNode
           id="feMergeNode4571"
           in="offsetBlur" />
        <feMergeNode
           id="feMergeNode4573"
           in="SourceGraphic" />
      </feMerge>
    </filter>
    <clipPath
       id="clipPath14822"
       clipPathUnits="userSpaceOnUse">
      <path
         id="path14824"
         clip-rule="evenodd"
         d="M 0,936 0,0 1368,0 1368,936 0,936 z" />
    </clipPath>
    <clipPath
       id="clipPath14452"
       clipPathUnits="userSpaceOnUse">
      <path
         id="path14454"
         d="M 0,63 144,63 144,0 0,0 0,63 z" />
    </clipPath>
    <clipPath
       id="clipPath14428"
       clipPathUnits="userSpaceOnUse">
      <path
         id="path14430"
         d="M 0,0 144,0 144,63 0,63 0,0 z" />
    </clipPath>
    <clipPath
       id="clipPath14416"
       clipPathUnits="userSpaceOnUse">
      <path
         id="path14418"
         clip-rule="evenodd"
         d="M 0,936 0,0 1368,0 1368,936 0,936 z" />
    </clipPath>
    <clipPath
       id="clipPath14408"
       clipPathUnits="userSpaceOnUse">
      <path
         id="path14410"
         clip-rule="evenodd"
         d="m 703.8,27 0,63 144,0 0,-63 -144,0 z" />
    </clipPath>
    <clipPath
       id="clipPath14114"
       clipPathUnits="userSpaceOnUse">
      <path
         id="path14116"
         clip-rule="evenodd"
         d="M 0,936 0,0 1368,0 1368,936 0,936 z" />
    </clipPath>
    <clipPath
       id="clipPath14102"
       clipPathUnits="userSpaceOnUse">
      <path
         id="path14104"
         clip-rule="evenodd"
         d="M 0,936 0,0 1368,0 1368,936 0,936 z" />
    </clipPath>
    <clipPath
       id="clipPath14094"
       clipPathUnits="userSpaceOnUse">
      <path
         id="path14096"
         clip-rule="evenodd"
         d="m 313.2,594 0,-594 741.6,0 0,594 -741.6,0 z" />
    </clipPath>
    <clipPath
       id="clipPath14082"
       clipPathUnits="userSpaceOnUse">
      <path
         id="path14084"
         clip-rule="evenodd"
         d="M 0,936 0,0 1368,0 1368,936 0,936 z" />
    </clipPath>
    <inkscape:perspective
       id="perspective7265"
       inkscape:persp3d-origin="0.5 : 0.33333333 : 1"
       inkscape:vp_z="1 : 0.5 : 1"
       inkscape:vp_y="0 : 1000 : 0"
       inkscape:vp_x="0 : 0.5 : 1"
       sodipodi:type="inkscape:persp3d" />
  </defs>
  <metadata
     id="metadata7">
    <rdf:RDF>
      <cc:Work
         rdf:about="">
        <dc:format>image/svg+xml</dc:format>
        <dc:type
           rdf:resource="http://purl.org/dc/dcmitype/StillImage" />
        <dc:title></dc:title>
      </cc:Work>
    </rdf:RDF>
  </metadata>
  <g
     inkscape:label="Layer 1"
     inkscape:groupmode="layer"
     id="layer1"
     transform="translate(0,-332.362)">
    <text
       xml:space="preserve"
       style="font-size:12px;font-style:normal;font-variant:normal;font-weight:normal;font-stretch:normal;line-height:124.00000095%;letter-spacing:0px;word-spacing:0px;fill:#000000;fill-opacity:1;stroke:none;font-family:Centennial-Light;-inkscape-font-specification:Centennial-Light"
       x="296.07144"
       y="159.80878"
       id="text5143"
       sodipodi:linespacing="124%"
       transform="translate(0,308.2677)"><tspan
         sodipodi:role="line"
         id="tspan5145"
         x="296.07144"
         y="159.80878" /></text>
    <flowRoot
       xml:space="preserve"
       id="flowRoot4637-5"
       style="font-size:10px;font-style:normal;font-variant:normal;font-weight:normal;font-stretch:normal;line-height:124.00000095%;letter-spacing:0px;word-spacing:0px;fill:#000000;fill-opacity:1;stroke:none;font-family:Linux Libertine O;-inkscape-font-specification:Linux Libertine O"
       transform="translate(0.25253819,440.77671)"><flowRegion
         id="flowRegion4639-5"><rect
           id="rect4641-1"
           width="258.59906"
           height="82.832512"
           x="120.71323"
           y="292.09631"
           style="font-size:10px;font-style:normal;font-variant:normal;font-weight:normal;font-stretch:normal;font-family:Linux Libertine O;-inkscape-font-specification:Linux Libertine O" /></flowRegion><flowPara
         id="flowPara4643-7" /></flowRoot>    <rect
       style="fill:none;stroke:none"
       id="rect5092"
       width="3.3002152e-08"
       height="0"
       x="480.83261"
       y="688.07611"
       transform="translate(0,272.36218)"
       ry="0" />
    <text
       xml:space="preserve"
       style="font-size:34.07332611px;font-style:normal;font-variant:normal;font-weight:normal;font-stretch:normal;line-height:124.00000095%;letter-spacing:-1.72070301px;word-spacing:0px;fill:#000000;fill-opacity:1;stroke:none;font-family:Witches;-inkscape-font-specification:Linux Libertine Capitals O"
       x="188.24214"
       y="365.22183"
       id="text4531-5"
       sodipodi:linespacing="124%"
       transform="scale(0.78319391,1.276823)"><tspan
         sodipodi:role="line"
         id="tspan4533-8"
         x="188.24214"
         y="365.22183"
         style="font-size:61.33198547px;font-style:normal;font-variant:normal;font-weight:normal;font-stretch:normal;letter-spacing:-1.72070301px;fill:#000000;fill-opacity:1;font-family:Linux Libertine Capitals O;-inkscape-font-specification:Linux Libertine Capitals O">Calvinisme,</tspan></text>
    <text
       xml:space="preserve"
       style="font-size:34.07332611px;font-style:normal;font-variant:normal;font-weight:normal;font-stretch:normal;line-height:124.00000095%;letter-spacing:-1.72070301px;word-spacing:0px;fill:#000000;fill-opacity:1;stroke:none;font-family:Witches;-inkscape-font-specification:Linux Libertine Capitals O"
       x="54.879478"
       y="398.66684"
       id="text4531-5-5"
       sodipodi:linespacing="124%"
       transform="scale(0.78319391,1.276823)"><tspan
         sodipodi:role="line"
         id="tspan4533-8-4"
         x="54.879478"
         y="398.66684"
         style="font-size:61.33198547px;font-style:normal;font-variant:normal;font-weight:normal;font-stretch:normal;letter-spacing:-1.72070301px;fill:#000000;fill-opacity:1;font-family:Linux Libertine Capitals O;-inkscape-font-specification:Linux Libertine Capitals O">Arminianisme</tspan></text>
    <text
       xml:space="preserve"
       style="font-size:18.35120583px;font-style:normal;font-variant:normal;font-weight:normal;font-stretch:normal;line-height:124.00000095%;letter-spacing:-0.92673594px;word-spacing:0px;fill:#000000;fill-opacity:1;stroke:none;font-family:Witches;-inkscape-font-specification:Linux Libertine Capitals O"
       x="364.74268"
       y="437.39703"
       id="text4531-5-5-8-8"
       sodipodi:linespacing="124%"
       transform="scale(0.78319391,1.276823)"><tspan
         sodipodi:role="line"
         x="364.74268"
         y="437.39703"
         style="font-size:33.03217316px;font-style:normal;font-variant:normal;font-weight:normal;font-stretch:normal;letter-spacing:-0.92673594px;fill:#000000;fill-opacity:1;font-family:Linux Libertine O;-inkscape-font-specification:Linux Libertine O"
         id="tspan4608-7">&amp;</tspan></text>
    <text
       xml:space="preserve"
       style="font-size:34.07332611px;font-style:normal;font-variant:normal;font-weight:normal;font-stretch:normal;line-height:124.00000095%;letter-spacing:-1.72070301px;word-spacing:0px;fill:#000000;fill-opacity:1;stroke:none;font-family:Witches;-inkscape-font-specification:Linux Libertine Capitals O"
       x="331.54453"
       y="480.22885"
       id="text4531-5-5-5"
       sodipodi:linespacing="124%"
       transform="scale(0.78319391,1.276823)"><tspan
         sodipodi:role="line"
         id="tspan4533-8-4-8"
         x="331.54453"
         y="480.22885"
         style="font-size:61.33198547px;font-style:normal;font-variant:normal;font-weight:normal;font-stretch:normal;letter-spacing:-1.72070301px;fill:#000000;fill-opacity:1;font-family:Linux Libertine Capitals O;-inkscape-font-specification:Linux Libertine Capitals O">Parole</tspan></text>
    <text
       xml:space="preserve"
       style="font-size:24.29945564px;font-style:normal;font-variant:normal;font-weight:normal;font-stretch:normal;line-height:124.00000095%;letter-spacing:-1.22712243px;word-spacing:0px;fill:#000000;fill-opacity:1;stroke:none;font-family:Witches;-inkscape-font-specification:Linux Libertine Capitals O"
       x="353.02655"
       y="503.86215"
       id="text4531-5-5-5-5"
       sodipodi:linespacing="124%"
       transform="scale(0.78319391,1.276823)"><tspan
         sodipodi:role="line"
         id="tspan4533-8-4-8-6"
         x="353.02655"
         y="503.86215"
         style="font-size:43.73901749px;font-style:normal;font-variant:normal;font-weight:normal;font-stretch:normal;letter-spacing:-1.22712243px;fill:#000000;fill-opacity:1;font-family:Linux Libertine Capitals O;-inkscape-font-specification:Linux Libertine Capitals O">de</tspan></text>
    <text
       xml:space="preserve"
       style="font-size:34.07332611px;font-style:normal;font-variant:normal;font-weight:normal;font-stretch:normal;line-height:124.00000095%;letter-spacing:-1.72070301px;word-spacing:0px;fill:#000000;fill-opacity:1;stroke:none;font-family:Witches;-inkscape-font-specification:Linux Libertine Capitals O"
       x="401.2009"
       y="524.92133"
       id="text4531-5-5-5-0"
       sodipodi:linespacing="124%"
       transform="scale(0.78319391,1.276823)"><tspan
         sodipodi:role="line"
         id="tspan4533-8-4-8-4"
         x="401.2009"
         y="524.92133"
         style="font-size:61.33198547px;font-style:normal;font-variant:normal;font-weight:normal;font-stretch:normal;letter-spacing:-1.72070301px;fill:#000000;fill-opacity:1;font-family:Linux Libertine Capitals O;-inkscape-font-specification:Linux Libertine Capitals O"
         dy="0 -10.911402 0 0">Dieu</tspan></text>
    <g
       id="g6577"
       transform="translate(18,-118.77159)">
      <text
         sodipodi:linespacing="124%"
         id="text4698"
         y="894.32874"
         x="79.816696"
         style="font-size:37.17683792px;font-style:normal;font-variant:normal;font-weight:normal;font-stretch:normal;line-height:124.00000095%;letter-spacing:2.11907983px;word-spacing:0px;fill:#000000;fill-opacity:1;stroke:none;font-family:Newtown;-inkscape-font-specification:Newtown"
         xml:space="preserve"><tspan
           y="894.32874"
           x="79.816696"
           id="tspan4700"
           sodipodi:role="line">C<tspan
   id="tspan3282"
   style="font-size:29.74147034px;letter-spacing:2.11907983px;fill:#000000;fill-opacity:1">HUCK</tspan></tspan></text>
      <text
         sodipodi:linespacing="124%"
         id="text4698-9"
         y="924.01025"
         x="39.527794"
         style="font-size:52.04757309px;font-style:normal;font-variant:normal;font-weight:normal;font-stretch:normal;line-height:124.00000095%;letter-spacing:2.32355237px;word-spacing:0px;fill:#000000;fill-opacity:1;stroke:none;font-family:Newtown;-inkscape-font-specification:Newtown"
         xml:space="preserve"><tspan
           style="font-size:29.74147034px;letter-spacing:2.32355237px;fill:#000000;fill-opacity:1"
           y="924.01025"
           x="39.527794"
           id="tspan4700-5"
           sodipodi:role="line"><tspan
   id="tspan4054"
   style="font-size:52.04757309px;letter-spacing:2.32355237px;fill:#000000;fill-opacity:1">S</tspan>MITH</tspan></text>
    </g>
    <text
       xml:space="preserve"
       style="font-size:11.15305138px;font-style:normal;font-variant:normal;font-weight:normal;font-stretch:normal;line-height:124.00000095%;letter-spacing:1.39413142px;word-spacing:0px;fill:#645a27;fill-opacity:1;stroke:none;font-family:Linux Biolinum O;-inkscape-font-specification:Linux Biolinum O"
       x="104.50636"
       y="867.25482"
       id="text4723"
       sodipodi:linespacing="124%"><tspan
         sodipodi:role="line"
         id="tspan4725"
         x="104.50636"
         y="867.25482"
         style="fill:#00000f;fill-opacity:0.94117647">LE POINT DE VUE DE CALVARY CHAPEL</tspan></text>
    <g
       id="layer1-9"
       inkscape:label="Layer 1"
       transform="matrix(0.09700231,0,0,0.09700231,188.13726,877.92712)">
      <g
         transform="matrix(6.4229245,0,0,6.4229245,-1713.6248,-2607.176)"
         id="g3324">
        <path
           inkscape:connector-curvature="0"
           id="path3340"
           d="m 276.71429,466.64789 0,-45.5 49,0 49,0 0,45.5 0,45.5 -49,0 -49,0 0,-45.5 z"
           style="fill:#fdfdfd" />
        <path
           inkscape:connector-curvature="0"
           id="path3338"
           d="m 296.71429,511.29373 c 0,-4.26171 10.52782,-36.17835 16.67051,-50.53911 1.85695,-4.3413 3.25325,-7.97323 3.10288,-8.07095 -0.15036,-0.0977 -2.7354,-0.7233 -5.74453,-1.39017 -7.34749,-1.62831 -10.02886,-4.25381 -10.02886,-9.81992 0,-5.13121 0.79626,-5.36719 3.51726,-1.04237 2.27456,3.61523 5.98,5.70543 11.40416,6.43297 3.68001,0.49359 3.69406,0.48121 8.34891,-7.36094 2.56449,-4.32044 5.46527,-8.7765 6.44619,-9.90234 1.93648,-2.22261 9.29267,-7.45301 10.48212,-7.45301 0.40391,0 -1.20197,2.8125 -3.56862,6.25 -5.14371,7.47112 -11.63002,18.21389 -11.63002,19.26189 0,0.41265 4.725,0.54013 10.5,0.28329 5.775,-0.25684 10.5,-0.15474 10.5,0.2269 0,0.38164 -4.1625,1.2302 -9.25,1.88571 -15.57996,2.0074 -14.06257,1.08688 -19.20007,11.64762 -4.66813,9.59589 -12.61687,28.89653 -17.21499,41.80035 -2.50591,7.0324 -4.33494,10.31925 -4.33494,7.79008 z m 20.7175,-7.23742 c -4.10765,-0.96723 -9.7175,-3.59803 -9.7175,-4.55711 0,-2.18862 9.74581,-13.61225 14.17848,-16.61941 8.19937,-5.56254 14.27205,-7.12085 25.1538,-6.45474 5.04224,0.30865 9.92232,0.85808 10.8446,1.22095 1.24054,0.48807 3.06203,-1.0365 7,-5.85894 6.21992,-7.61691 7.50505,-7.17237 2.38843,0.82618 -1.96092,3.06542 -3.56531,5.96986 -3.56531,6.45433 0,0.48446 2.25139,1.42094 5.00308,2.08106 7.86722,1.88732 7.39455,3.3426 -0.81778,2.51787 l -7.0743,-0.71045 -6.09838,6.51919 c -12.03729,12.8679 -24.26628,17.64901 -37.29512,14.58107 z m 21.21678,-6.11728 c 2.51114,-1.21488 7.66277,-5.37738 11.44806,-9.25 l 6.88234,-7.04114 -4.38234,-0.67588 c -14.39742,-2.22047 -21.76542,-0.0925 -30.76197,8.8843 -3.5088,3.50111 -6.12978,6.6155 -5.82441,6.92087 0.30537,0.30538 2.27621,1.16896 4.37963,1.91907 5.83442,2.08066 13.0077,1.78317 18.25869,-0.75722 z m -45.51844,3.04611 c -1.02864,-1.98917 -1.45328,-4.52143 -1.1444,-6.82434 0.4809,-3.58536 0.40281,-3.68523 -3.75037,-4.79603 -2.75696,-0.73738 -5.38195,-2.43334 -7.49993,-4.84558 -3.18409,-3.62648 -3.24807,-3.88411 -2.80422,-11.29123 0.36127,-6.02892 1.21275,-9.21715 4.16097,-15.58007 3.5779,-7.72191 15.52782,-26.92763 16.28402,-26.17142 0.20361,0.20361 -2.11197,5.27548 -5.14574,11.27081 -6.92406,13.6833 -9.65903,21.83292 -9.65903,28.78179 0,7.88539 2.12163,11.27148 9.06316,14.46464 l 5.76985,2.65418 -1.77888,2.91115 c -1.33828,2.19011 -1.63693,4.10963 -1.20578,7.75 0.66586,5.6221 0.002,6.10796 -2.28965,1.6761 z m 38.58674,-31.34404 c 3.12586,-8.22162 10.00018,-15.68215 18.58122,-20.16574 2.9763,-1.55511 5.41252,-3.16497 5.41382,-3.57747 0.001,-0.4125 -2.36012,-0.7507 -5.24762,-0.75155 -9.89976,-0.003 -15.01973,-4.88891 -11.67399,-11.14048 1.17909,-2.20314 1.21808,-2.18447 2.31165,1.10688 2.0204,6.08082 7.97617,8.48611 16.6725,6.73332 3.36046,-0.67732 3.6549,-0.51891 5.24898,2.82391 1.59534,3.34546 1.59201,3.57594 -0.0602,4.16409 -12.62209,4.49333 -22.48493,11.07996 -27.3664,18.27589 -3.66217,5.39853 -5.40159,6.53325 -3.88,2.53115 z"
           style="fill:#d0d0d0" />
        <path
           inkscape:connector-curvature="0"
           id="path3336"
           d="m 296.71429,511.50962 c 0,-4.26335 12.11027,-40.03247 17.80866,-52.60002 l 3.02187,-6.66458 -4.66527,-0.67842 c -8.88498,-1.29204 -12.16526,-4.21848 -12.16526,-10.85297 0,-4.36039 1.17242,-4.5966 2.70197,-0.54437 1.19095,3.1552 6.46548,6.11866 13.04642,7.33004 3.12959,0.57608 3.35471,0.3886 6.15598,-5.12673 4.26857,-8.40427 8.40249,-13.65171 13.53876,-17.18555 2.50628,-1.72437 4.55687,-2.902 4.55687,-2.61696 0,0.28504 -2.20846,3.79416 -4.90769,7.79804 -2.69923,4.00388 -6.28756,9.64229 -7.97406,12.52979 l -3.06636,5.25 10.22406,0.0789 c 11.96781,0.0924 11.52822,0.59467 -1.95128,2.2295 l -9.82467,1.19155 -5.12171,10.23734 c -4.8076,9.60952 -15.58195,35.86741 -18.36736,44.76266 -1.26179,4.02956 -3.01093,6.85388 -3.01093,4.86173 z m 22.14621,-7.35902 c -1.84458,-0.43591 -5.08779,-1.57449 -7.20714,-2.53018 l -3.85335,-1.73762 1.59708,-3.0884 c 3.00922,-5.81919 12.09472,-14.27354 18.36137,-17.08584 7.19857,-3.23053 17.03757,-4.24669 25.45583,-2.62906 l 6,1.15295 5.86878,-6.29228 5.86879,-6.29228 -2.75758,5 c -1.51666,2.75 -3.44235,5.79026 -4.27932,6.75613 -1.83562,2.11835 -2.0981,1.90882 5.29933,4.23027 7.0032,2.19773 5.17595,3.10964 -3.14777,1.57092 -5.12993,-0.94832 -5.87533,-0.87222 -6.74064,0.68823 -2.33939,4.21867 -12.16302,13.26688 -17.4009,16.02737 -5.37981,2.83529 -14.22595,5.35246 -18.00991,5.12472 -0.93543,-0.0563 -3.20999,-0.45902 -5.05457,-0.89493 z m 20.64525,-6.58608 c 3.12812,-1.55881 7.60881,-5.22734 11.29782,-9.25 l 6.11368,-6.66663 -2.85148,-0.63168 c -1.56832,-0.34743 -6.22648,-0.68054 -10.35148,-0.74024 -5.97722,-0.0865 -8.54854,0.37966 -12.66428,2.29597 -5.14713,2.39653 -12.18086,8.54955 -14.30027,12.50971 -0.95388,1.78235 -0.78335,2.20814 1.17431,2.93211 1.25963,0.46583 2.96524,1.10105 3.79024,1.4116 4.1265,1.55331 12.75016,0.65134 17.79146,-1.86084 z m -46.20106,3.12137 c -1.22742,-2.27917 -1.68199,-4.58619 -1.33047,-6.75234 0.5157,-3.17786 0.35897,-3.35863 -4.58473,-5.288 -9.75462,-3.80692 -12.06771,-12.09814 -7.21313,-25.85522 2.42764,-6.87953 11.5182,-23.0909 15.52552,-27.68698 2.68679,-3.08154 2.6093,-2.8787 -4.21952,11.04454 -11.82694,24.11389 -11.18178,35.92947 2.22178,40.68999 l 4.83499,1.71724 -1.95997,2.4917 c -1.62711,2.06852 -1.84742,3.39261 -1.2972,7.79638 0.36453,2.91758 0.48826,5.30469 0.27496,5.30469 -0.2133,0 -1.22681,-1.5579 -2.25223,-3.462 z m 38.91123,-31.538 c 2.0275,-6.97776 10.0649,-15.3378 18.9223,-19.68188 3.00798,-1.47525 5.24157,-3.05033 4.96354,-3.50019 -0.27803,-0.44986 -2.69965,-0.81793 -5.38139,-0.81793 -5.48797,0 -8.91675,-1.05353 -11.3509,-3.48768 -2.00955,-2.00955 -2.15656,-5.85132 -0.28339,-7.40592 1.09638,-0.90991 1.48683,-0.56331 1.94476,1.72635 0.31898,1.59493 1.79725,3.66702 3.33486,4.6745 2.90698,1.90473 9.98257,2.51697 14.48155,1.25307 2.2948,-0.64468 2.79495,-0.34856 3.89436,2.30564 1.51715,3.66272 1.09459,4.15544 -5.92147,6.90475 -7.72357,3.02655 -15.58684,8.53537 -19.83374,13.89505 -5.32521,6.72055 -5.5882,6.94846 -4.77048,4.13424 z"
           style="fill:#b0b0b0" />
        <path
           inkscape:connector-curvature="0"
           id="path3334"
           d="m 299.31804,502.15671 c 3.30208,-12.05041 9.63821,-30.10977 14.53617,-41.43127 2.12305,-4.90734 3.86008,-9.06984 3.86008,-9.25 0,-0.18015 -1.81445,-0.32755 -4.03212,-0.32755 -8.13947,0 -12.96788,-3.63683 -12.96788,-9.76759 0,-4.19775 1.1713,-4.73028 2.65306,-1.20622 1.32116,3.14211 6.42825,6.05542 13.04221,7.43985 2.99885,0.62772 3.33024,0.40343 5.39076,-3.64861 4.2084,-8.27585 9.96333,-15.75531 14.55158,-18.91211 5.43129,-3.73682 5.4551,-3.83505 -1.7197,7.09468 -3.0689,4.675 -6.59259,10.1875 -7.83042,12.25 l -2.25061,3.75 9.83156,0.10236 c 10.90925,0.11358 8.97578,1.22385 -4.31854,2.47987 l -7.15009,0.67553 -5.53327,11.62112 c -5.53661,11.62817 -11.6695,26.46853 -16.37371,39.62112 -3.72114,10.40402 -4.60423,10.14722 -1.68908,-0.49118 z m -6.05505,-1.90082 c -1.14249,-2.53359 -1.52612,-4.93433 -1.09914,-6.87836 0.58567,-2.66651 0.35574,-3.06128 -2.14682,-3.68595 -4.67284,-1.16639 -9.00065,-4.38732 -10.69628,-7.96058 -3.09314,-6.5183 -1.52595,-14.87568 5.3401,-28.47724 3.05986,-6.06155 11.93699,-20.10587 12.70851,-20.10587 0.1989,0 -2.0785,4.8655 -5.0609,10.81223 -9.56498,19.07203 -11.68626,30.47028 -6.89559,37.05201 1.60826,2.20953 7.71051,6.10546 11.58702,7.39763 0.59522,0.1984 0.29084,1.45492 -0.72975,3.01254 -1.37444,2.09766 -1.60223,3.75291 -1.05952,7.69888 0.38024,2.76469 0.49246,5.02671 0.24938,5.02671 -0.24308,0 -1.23173,-1.7514 -2.19701,-3.892 z m 21.07609,2.47158 c -2.13136,-0.7865 -4.34977,-1.90456 -4.92979,-2.48458 -1.60232,-1.60232 0.92492,-5.71106 7.80087,-12.68251 9.2757,-9.40451 21.10482,-12.92221 35.13404,-10.44802 l 6.87009,1.21161 5.89256,-6.33804 c 5.2403,-5.63647 5.63594,-5.89527 3.57427,-2.33804 -1.27505,2.2 -3.18829,5.26341 -4.25165,6.80757 -1.06335,1.54417 -1.77177,2.95158 -1.57427,3.12757 0.1975,0.176 2.99496,1.07672 6.21657,2.00161 3.22162,0.92489 5.61857,1.92054 5.32655,2.21256 -0.29202,0.29202 -3.57246,0.0574 -7.28986,-0.52132 -6.44733,-1.00376 -6.82682,-0.95029 -8.23216,1.15987 -3.36383,5.05092 -13.10766,13.53914 -18.6858,16.27792 -4.85279,2.38264 -7.48006,2.98211 -13.97621,3.189 -5.06588,0.16134 -9.42129,-0.26969 -11.87521,-1.1752 z m 25.61286,-5.35244 c 2.60571,-1.39235 7.55571,-5.47003 11,-9.0615 l 6.26235,-6.52995 -3.49659,-0.91033 c -5.55674,-1.4467 -18.9238,-0.44392 -23.50341,1.7632 -3.95288,1.90506 -14.5,11.74005 -14.5,13.52097 0,2.40416 10.1554,5.10647 16,4.25754 1.925,-0.27961 5.63194,-1.64758 8.23765,-3.03993 z m -8.1852,-26.51038 c -0.0289,-0.43079 1.05125,-2.96129 2.40022,-5.62335 2.92909,-5.78029 10.07363,-12.35587 17.29733,-15.91984 2.8875,-1.42461 5.25,-2.94646 5.25,-3.38189 0,-0.43542 -2.3625,-0.79238 -5.25,-0.79323 -5.53773,-0.002 -11.36832,-2.29939 -13.12101,-5.17079 -0.71851,-1.17713 -0.63521,-2.50966 0.28132,-4.5 l 1.3021,-2.82766 1.1438,3.5 c 1.86297,5.70067 10.19249,8.64288 17.06793,6.02884 2.27268,-0.86407 2.72904,-0.63329 4.13883,2.09293 0.87148,1.68525 1.32809,3.32051 1.01469,3.6339 -0.3134,0.3134 -3.42004,1.7723 -6.90366,3.24201 -10.29737,4.34438 -17.24808,9.82251 -22.87155,18.02596 -0.93365,1.362 -1.72115,2.1239 -1.75,1.69312 z"
           style="fill:#8e8e8e" />
        <path
           inkscape:connector-curvature="0"
           id="path3332"
           d="m 297.73919,509.57132 c -0.0979,-4.23425 9.78656,-33.75014 16.83753,-50.27814 1.72566,-4.04509 3.13757,-7.53259 3.13757,-7.75 0,-0.21741 -1.77071,-0.39529 -3.9349,-0.39529 -7.90519,0 -13.0651,-3.75191 -13.0651,-9.5 0,-1.925 0.45,-3.5 1,-3.5 0.55,0 1,0.59656 1,1.32569 0,2.27908 4.55884,5.73728 9.5392,7.23615 6.6127,1.99012 7.18759,1.87515 9.05941,-1.81184 3.88747,-7.65726 10.65218,-16.65019 14.38077,-19.11766 2.21134,-1.46339 4.02062,-2.44274 4.02062,-2.17632 0,0.26642 -2.19269,3.76031 -4.87264,7.76419 -2.67995,4.00388 -6.07602,9.38028 -7.54682,11.94754 -2.61757,4.56895 -2.6312,4.6814 -0.6438,5.31217 1.11672,0.35443 5.30029,0.40258 9.29682,0.10699 9.04566,-0.66902 3.85025,0.93908 -6.38994,1.97784 l -6.65637,0.67522 -2.48887,4.63001 c -3.66571,6.81927 -11.29501,24.69753 -17.33829,40.63002 -2.92066,7.7 -5.32149,13.51554 -5.33519,12.92343 z m 16.49926,-7.01973 c -2.18671,-0.80046 -4.36251,-1.84205 -4.8351,-2.31464 -2.45303,-2.45303 9.43685,-16.06184 17.37628,-19.88836 7.42941,-3.58071 14.98219,-4.54248 24.76585,-3.15369 7.25586,1.02997 8.6683,0.99444 9.58903,-0.24123 2.70647,-3.63224 8.57978,-10.09287 8.57978,-9.43774 0,0.40042 -1.60085,3.23057 -3.55745,6.28922 -1.95659,3.05865 -3.41909,5.67542 -3.25,5.81506 0.1691,0.13963 3.00745,1.1955 6.30745,2.34639 l 6,2.09252 -5.5,-0.6518 c -9.31638,-1.10408 -9.34145,-1.09579 -14.05877,4.65118 -5.27761,6.42954 -13.52061,12.32676 -20.28267,14.51067 -6.00483,1.93934 -15.81071,1.93119 -21.1344,-0.0176 z m 24.92777,-4.38225 c 4.66712,-2.26141 18.32035,-15.58147 17.16188,-16.74308 -0.42694,-0.42811 -5.26015,-0.93368 -10.74046,-1.1235 -9.12672,-0.31612 -10.41866,-0.12277 -15.37139,2.30037 -5.30601,2.59599 -14.50196,11.48939 -14.50196,14.02484 0,1.9167 9.82712,4.53398 14.95193,3.98218 2.44856,-0.26365 6.27357,-1.36201 8.5,-2.44081 z m -46.01475,1.85707 c -1.05864,-2.04717 -1.39933,-4.26675 -0.98991,-6.44914 0.59796,-3.18737 0.45667,-3.37788 -3.35126,-4.51876 -2.18654,-0.6551 -5.46513,-2.72917 -7.28577,-4.60903 -3.09228,-3.19289 -3.30686,-3.85855 -3.25889,-10.10977 0.0581,-7.57199 2.4841,-14.40487 9.41594,-26.52016 5.8571,-10.23688 10.35873,-15.57591 5.62525,-6.67166 -5.77609,10.86554 -9.70653,21.95157 -10.27052,28.96864 -0.46008,5.72423 -0.23178,6.96388 1.84738,10.03136 1.32632,1.95675 4.56778,4.60232 7.35147,6 2.73852,1.375 5.16387,2.60974 5.38967,2.74387 0.22579,0.13413 -0.39619,1.13528 -1.38218,2.22479 -1.44935,1.60151 -1.66503,2.94342 -1.12609,7.00613 0.36664,2.76387 0.43767,5.02521 0.15785,5.02521 -0.27982,0 -1.23514,-1.40467 -2.12294,-3.12148 z m 38.5722,-29.47848 c 0.005,-0.49502 1.33379,-3.20918 2.95251,-6.03146 3.44311,-6.00317 9.07378,-11.09724 16.63044,-15.04557 2.9716,-1.55265 5.40399,-3.0989 5.40529,-3.4361 0.001,-0.3372 -2.92251,-0.84787 -6.49737,-1.13483 -9.81923,-0.78819 -13.97903,-4.24071 -11.5255,-9.56585 l 1.23766,-2.68623 1.1438,3.5 c 1.86297,5.70067 10.19249,8.64288 17.06793,6.02884 2.26658,-0.86175 2.72912,-0.63314 4.10596,2.02937 1.59706,3.08837 1.27176,4.94179 -0.86733,4.94179 -0.67056,0 -4.42481,1.53625 -8.34279,3.41389 -7.67967,3.68038 -13.97251,8.78242 -18.48387,14.98615 -1.55986,2.14502 -2.83189,3.49502 -2.82673,3 z"
           style="fill:#6f6f6f" />
        <path
           inkscape:connector-curvature="0"
           id="path3330"
           d="m 298.25562,506.64584 c 1.66557,-7.09373 11.54947,-35.77936 15.33219,-44.49795 2.26697,-5.225 4.12282,-9.8375 4.12412,-10.25 10e-4,-0.4125 -1.56353,-0.75 -3.4774,-0.75 -5.07751,0 -11.0665,-2.70873 -12.38444,-5.6013 -1.40296,-3.07916 -1.46201,-6.07906 -0.1358,-6.8987 0.55,-0.33992 1,0.005 1,0.76667 0,3.20968 9.84384,8.73333 15.56391,8.73333 0.68532,0 2.48216,-2.1375 3.99297,-4.75 5.9248,-10.24519 9.6393,-15.11405 13.45923,-17.64196 2.19114,-1.45003 3.98389,-2.40607 3.98389,-2.12454 0,0.28153 -1.54727,2.66555 -3.43837,5.29784 -3.93429,5.47624 -11.56163,18.30947 -11.56163,19.45279 0,0.42123 2.8125,0.83114 6.25,0.9109 l 6.25,0.14504 -7.31081,1.00067 -7.31081,1.00068 -3.35453,6.66121 c -4.34523,8.62848 -12.64868,28.39109 -17.12816,40.76585 -3.65779,10.10481 -5.06919,12.95353 -3.85436,7.77947 z m 16.45867,-4.09115 c -2.475,-0.87966 -4.90125,-1.9798 -5.39167,-2.44476 -1.17984,-1.11859 4.60934,-10.06796 9.0151,-13.93627 6.94549,-6.09822 12.96888,-8.36537 23.37657,-8.79874 5.225,-0.21757 11.39803,0.0413 13.71785,0.57518 l 4.21785,0.97075 4.63082,-5.13648 c 4.24559,-4.70918 4.15774,-3.57607 -0.21987,2.83603 -2.03178,2.97605 -1.79448,3.25538 4.26083,5.01571 3.08412,0.89658 5.44662,1.77913 5.25,1.96123 -0.19661,0.18209 -3.23857,-0.11106 -6.7599,-0.65145 l -6.40241,-0.98253 -2.53304,3.34227 c -8.53838,11.26614 -20.27511,18.16441 -31.62329,18.58658 -4.52644,0.16839 -8.64504,-0.30901 -11.53884,-1.33752 z m 24.47822,-4.14345 c 2.04283,-1.04804 7.05238,-5.23622 11.13233,-9.30706 7.02704,-7.01136 7.29873,-7.44714 5.15377,-8.26641 -1.24537,-0.47568 -6.08932,-0.938 -10.76432,-1.02738 -7.48168,-0.14303 -9.1858,0.17427 -14.22441,2.64853 -5.69748,2.79781 -16.25425,13.10547 -15.18841,14.83003 0.28115,0.4549 2.62655,1.50433 5.212,2.33206 5.8057,1.85868 13.69382,1.3478 18.67904,-1.20977 z m -45.94054,1.1748 c -1.28466,-2.7072 -1.45526,-4.23583 -0.71101,-6.37079 0.93234,-2.6745 0.79455,-2.86427 -2.87866,-3.96479 -11.99232,-3.59298 -14.6365,-13.36886 -7.94787,-29.38419 2.61722,-6.26671 11.56981,-21.71838 12.58347,-21.71838 0.24284,0 -1.13735,3.13525 -3.0671,6.96722 -5.84051,11.59769 -8.78621,21.6274 -8.30516,28.27785 0.35654,4.92919 0.91797,6.29314 3.82488,9.29231 1.87385,1.93332 5.10727,4.02455 7.18538,4.64716 4.18067,1.25256 4.55339,1.92737 2.16117,3.91275 -1.26145,1.0469 -1.49734,2.5038 -1.07226,6.62244 0.29974,2.90415 0.40376,5.28027 0.23117,5.28027 -0.17259,0 -1.0744,-1.60283 -2.00401,-3.56185 z m 39.46232,-31.15855 c 0,-1.93612 6.30215,-10.35085 9.86643,-13.17381 2.03727,-1.61355 5.93825,-4.12162 8.66885,-5.57349 2.73059,-1.45187 4.96472,-3.09478 4.96472,-3.65091 0,-0.55613 -2.82244,-1.12651 -6.27209,-1.26751 -9.53082,-0.38956 -14.57707,-5.11973 -10.79745,-10.12114 1.46784,-1.94233 1.50674,-1.92758 1.53774,0.58295 0.0179,1.44751 1.16459,3.63756 2.61803,5 2.29448,2.15083 3.47131,2.41905 10.43214,2.37766 7.2809,-0.0433 7.9228,0.12212 8.91377,2.29705 0.58732,1.28904 1.06786,2.49527 1.06786,2.68051 0,0.18524 -2.5875,1.36899 -5.75,2.63055 -8.4152,3.35692 -15.13561,7.90522 -20.5056,13.87793 -2.60942,2.90231 -4.7444,4.8554 -4.7444,4.34021 z"
           style="fill:#4f4f4f" />
        <path
           inkscape:connector-curvature="0"
           id="path3328"
           d="m 313.96429,502.08715 c -2.8875,-1.14347 -5.25,-2.44808 -5.25,-2.89914 0,-0.45105 1.94449,-3.45711 4.3211,-6.68011 7.81112,-10.59296 17.41542,-15.36001 30.94623,-15.36001 4.53523,0 9.8179,0.46544 11.73927,1.03432 3.40999,1.00962 3.60844,0.90815 8.31144,-4.25 l 4.81804,-5.28432 -3.06804,5.1106 c -1.68742,2.81083 -3.06804,5.38471 -3.06804,5.71974 0,0.33503 2.1375,1.3002 4.75,2.14484 l 4.75,1.53569 -5.77454,-0.58046 -5.77455,-0.58046 -7.04998,7.54905 c -9.1162,9.76154 -16.70655,13.7443 -27.18108,14.26227 -5.58087,0.27598 -8.41165,-0.11493 -12.46985,-1.72201 z m 24.65252,-3.47369 c 3.54047,-1.6481 7.76352,-4.99098 12.25268,-9.69898 8.23928,-8.64093 7.96362,-9.05513 -6.11043,-9.18113 -8.52037,-0.0763 -10.09125,0.20289 -14.63654,2.60121 -5.31591,2.80492 -15.82583,13.32862 -14.86455,14.88401 0.86294,1.39625 9.51673,3.78344 13.95632,3.8499 2.28799,0.0342 6.3123,-1.0165 9.40252,-2.45501 z m -44.89322,1.55687 c -0.67835,-1.63766 -1.04751,-4.56943 -0.82037,-6.51505 0.39209,-3.35852 0.22297,-3.58866 -3.3425,-4.54874 -5.40972,-1.45669 -9.61951,-5.40222 -10.92095,-10.23541 -1.4364,-5.33437 0.66645,-14.32064 5.66092,-24.19134 3.6492,-7.21198 9.30308,-16.5319 10.02901,-16.5319 0.2238,0 -1.37342,3.54091 -3.54938,7.86868 -8.09614,16.10242 -10.25211,28.29504 -6.11346,34.57339 2.15032,3.26203 8.5696,7.54486 11.32048,7.55281 1.66724,0.005 1.67407,0.15619 0.11443,2.53651 -1.23763,1.88885 -1.50926,3.79253 -1.07017,7.5 0.32365,2.73273 0.43926,4.96861 0.25689,4.96861 -0.18236,0 -0.88657,-1.3399 -1.5649,-2.97756 z m 5.9907,2.08143 c 0,-2.3406 9.83511,-30.64344 13.90897,-40.02632 2.25007,-5.18234 4.09103,-9.73216 4.09103,-10.11071 0,-0.37854 -2.30692,-0.96148 -5.12648,-1.29541 -6.04798,-0.7163 -9.58417,-2.78019 -10.95897,-6.39618 -1.76657,-4.64644 -0.29397,-5.45467 3.33196,-1.82874 3.18416,3.18416 8.82946,5.53579 13.31828,5.54791 1.41213,0.004 2.61569,-1.17974 3.80769,-3.74442 3.13595,-6.74727 9.73339,-15.74918 13.21522,-18.03157 4.0066,-2.62639 4.28427,-2.06474 1.08128,2.18718 -3.39447,4.50611 -11.66898,18.38848 -11.66898,19.57737 0,0.56229 2.57093,1.05232 5.75,1.09597 6.67293,0.0916 6.08289,0.50478 -2.02785,1.41997 l -5.77785,0.65195 -4.35004,8.67457 c -2.39253,4.77101 -7.393,16.32456 -11.11217,25.67456 -6.9951,17.58573 -7.48209,18.66642 -7.48209,16.60387 z m 33,-33.70448 c 0,-0.48514 1.57947,-3.1754 3.50994,-5.97835 3.64052,-5.28588 8.89167,-9.58222 16.30549,-13.34071 2.37349,-1.20326 4.1386,-2.71823 3.92247,-3.36662 -0.22393,-0.67179 -2.66435,-1.26097 -5.67347,-1.36973 -9.05148,-0.32714 -13.65588,-3.36628 -12.39646,-8.18231 0.68765,-2.62958 2.33203,-2.86649 2.33203,-0.33598 0,1.00412 1.1638,2.91662 2.58623,4.25 2.29696,2.15315 3.46833,2.41899 10.47275,2.37678 7.68323,-0.0463 7.91075,0.022 8.82607,2.64764 0.89325,2.56237 0.70983,2.78002 -3.72275,4.41739 -9.71038,3.58696 -17.38372,8.85312 -22.9123,15.72456 -1.7875,2.22167 -3.25,3.64247 -3.25,3.15733 z"
           style="fill:#2e2e2e" />
        <path
           inkscape:connector-curvature="0"
           id="path3326"
           d="m 319.21429,503.46206 c -1.1,-0.2496 -3.90792,-1.15679 -6.23982,-2.01596 l -4.23981,-1.56215 2.23981,-3.98975 c 1.2319,-2.19436 4.8365,-6.39473 8.01023,-9.33415 4.45746,-4.12839 7.26868,-5.80718 12.35533,-7.37828 7.18965,-2.22066 16.29655,-2.58555 23.37426,-0.93656 l 4.5,1.04843 4.4672,-4.82288 c 4.15688,-4.48785 4.10433,-4.06697 -0.35297,2.82727 -1.69184,2.6168 -1.67817,2.66298 1.08619,3.67105 l 2.79958,1.02092 -3.52754,0.0789 c -3.01464,0.0675 -4.29303,0.94859 -8.79228,6.06 -2.8956,3.28957 -7.33857,7.40788 -9.87326,9.15179 -7.62227,5.24426 -18.4778,7.8444 -25.80692,6.18133 z m 19.41485,-4.36104 c 5.15505,-2.33878 19.76919,-16.66909 18.39779,-18.04049 -0.49805,-0.49805 -4.93465,-1.17282 -9.8591,-1.49949 -9.89702,-0.65652 -14.8883,0.54775 -21.64308,5.22195 -3.43382,2.37615 -10.81046,10.82606 -10.81046,12.38333 0,1.30357 9.50306,3.85819 14.5,3.89791 2.94477,0.0234 6.8147,-0.78357 9.41485,-1.96321 z m -45.47523,-0.33768 c -0.32917,-1.3115 -0.45024,-3.8634 -0.26905,-5.67089 0.30138,-3.00657 0.0346,-3.36408 -3.13403,-4.19936 -12.49771,-3.29455 -14.52735,-14.96989 -5.72906,-32.95589 5.47163,-11.18543 8.84352,-15.90029 4.85546,-6.78931 -6.54116,14.94373 -8.03384,24.48141 -4.80775,30.71996 1.83844,3.55515 6.00815,6.83116 9.9558,7.82196 3.16166,0.79352 3.07349,0.49177 1.19616,4.09377 -0.9316,1.78745 -1.26571,4.08617 -0.8887,6.11431 0.69403,3.73361 -0.27957,4.44839 -1.17883,0.86545 z m 7.59804,0.69477 c -0.0587,-1.85542 10.29574,-30.87212 14.29528,-40.06022 l 3.5912,-8.25 -2.71207,-0.006 c -3.965,-0.008 -10.4478,-1.95828 -12.46207,-3.7488 -1.07357,-0.9543 -1.73452,-2.94519 -1.70996,-5.15061 l 0.04,-3.59501 1.42301,2.61852 c 1.69708,3.12285 7.371,6.01232 12.95674,6.59828 4.02154,0.42188 4.05476,0.39699 7.20329,-5.39649 4.43562,-8.1618 8.61215,-13.66807 12.42852,-16.38556 3.52928,-2.51307 3.4275,-2.22246 -2.12427,6.06525 -2.02639,3.025 -5.14098,8.0875 -6.92131,11.25 l -3.23698,5.75 5.84546,0.13112 5.84546,0.13111 -5.60755,0.72183 c -3.08416,0.39701 -6.18027,1.07579 -6.88025,1.5084 -1.67948,1.03798 -7.90353,14.35581 -15.65965,33.50754 -3.45248,8.525 -6.29418,14.9646 -6.31489,14.31022 z m 67.23317,-16.91439 c 0.33229,-0.33229 1.19479,-0.36782 1.91667,-0.079 0.79773,0.31923 0.56078,0.55619 -0.60417,0.60417 -1.05416,0.0434 -1.64479,-0.19293 -1.3125,-0.52522 z m -32.90857,-18.01579 c 2.15929,-4.33352 10.70521,-11.7767 17.13121,-14.92065 6.95118,-3.40089 6.52413,-5.45939 -1.13258,-5.45939 -2.98382,0 -6.98567,-0.65204 -8.89301,-1.44897 -2.97723,-1.24397 -3.46338,-1.91602 -3.43608,-4.75 0.0301,-3.11911 0.11272,-3.19405 1.5,-1.3599 0.80751,1.06762 1.4682,2.29356 1.4682,2.72432 0,2.11581 6.48611,3.99168 12.69739,3.67225 5.9912,-0.3081 6.56326,-0.15345 7.76952,2.10046 1.27519,2.38273 1.15397,2.49746 -5.86062,5.54682 -8.80423,3.82735 -15.44775,8.3161 -19.62575,13.26029 -3.05728,3.61794 -3.11624,3.64106 -1.61828,0.63477 z"
           style="fill:#030303" />
      </g>
    </g>
    <text
       xml:space="preserve"
       style="font-size:24px;font-style:italic;font-variant:normal;font-weight:bold;font-stretch:normal;line-height:125%;letter-spacing:0px;word-spacing:0px;fill:#000000;fill-opacity:1;stroke:none;font-family:Linux Libertine Slanted O;-inkscape-font-specification:Linux Libertine Slanted O Bold Italic"
       x="113.36625"
       y="971.41461"
       id="text3653"
       sodipodi:linespacing="125%"><tspan
         sodipodi:role="line"
         x="113.36625"
         y="971.41461"
         id="tspan3657">La Colombe Calvary</tspan></text>
    <text
       xml:space="preserve"
       style="font-size:16px;font-style:normal;font-variant:normal;font-weight:normal;font-stretch:normal;line-height:125%;letter-spacing:0px;word-spacing:0px;fill:#000000;fill-opacity:1;stroke:none;font-family:Linux Biolinum O;-inkscape-font-specification:Linux Biolinum O"
       x="105.51187"
       y="996.89612"
       id="text3661"
       sodipodi:linespacing="125%"><tspan
         sodipodi:role="line"
         x="105.51187"
         y="996.89612"
         id="tspan3268">10 avenue Aimé Martin <tspan
   style="font-size:16px;font-style:normal;font-variant:normal;font-weight:normal;font-stretch:normal;fill:#4d4d4d;fill-opacity:1;font-family:Linux Biolinum O;-inkscape-font-specification:Linux Biolinum O"
   id="tspan4042">•</tspan> 06200 Nice</tspan></text>
  </g>
</svg>
