<?xml version="1.0" encoding="UTF-8" standalone="no"?>
<!-- Created with Inkscape (http://www.inkscape.org/) -->

<svg
   xmlns:dc="http://purl.org/dc/elements/1.1/"
   xmlns:cc="http://creativecommons.org/ns#"
   xmlns:rdf="http://www.w3.org/1999/02/22-rdf-syntax-ns#"
   xmlns:svg="http://www.w3.org/2000/svg"
   xmlns="http://www.w3.org/2000/svg"
   xmlns:sodipodi="http://sodipodi.sourceforge.net/DTD/sodipodi-0.dtd"
   xmlns:inkscape="http://www.inkscape.org/namespaces/inkscape"
   width="450"
   height="720"
   id="svg2"
   version="1.1"
   inkscape:version="0.48.1 "
   sodipodi:docname="calvinisme_title.svg">
  <sodipodi:namedview
     id="base"
     pagecolor="#ffffff"
     bordercolor="#666666"
     borderopacity="1.0"
     inkscape:pageopacity="0.0"
     inkscape:pageshadow="2"
     inkscape:zoom="2.9981327"
     inkscape:cx="194.90465"
     inkscape:cy="327.17847"
     inkscape:document-units="px"
     inkscape:current-layer="layer1"
     showgrid="false"
     inkscape:window-width="1280"
     inkscape:window-height="975"
     inkscape:window-x="-4"
     inkscape:window-y="-4"
     inkscape:window-maximized="1"
     units="in" />
  <defs
     id="defs4">
    <inkscape:perspective
       sodipodi:type="inkscape:persp3d"
       inkscape:vp_x="0 : 500 : 1"
       inkscape:vp_y="0 : 1000 : 0"
       inkscape:vp_z="1300 : 500 : 1"
       inkscape:persp3d-origin="650 : 333.33333 : 1"
       id="perspective3698" />
    <clipPath
       id="clipPath3467"
       clipPathUnits="userSpaceOnUse">
      <path
         id="path3469"
         d="m -0.0584,0 0,0.0025 0.0044,0 0,-0.0025 -0.0044,0"
         inkscape:connector-curvature="0" />
    </clipPath>
    <clipPath
       id="clipPath3459"
       clipPathUnits="userSpaceOnUse">
      <path
         id="path3461"
         d="m -2.83232,-4.40764 12.43808,0 0,5.59068 -12.43808,0 0,-5.59068 z"
         inkscape:connector-curvature="0" />
    </clipPath>
    <clipPath
       id="clipPath3449"
       clipPathUnits="userSpaceOnUse">
      <path
         id="path3451"
         d="M 0,0 852,0 852,672 0,672 0,0 z"
         inkscape:connector-curvature="0" />
    </clipPath>
    <clipPath
       id="clipPath3439"
       clipPathUnits="userSpaceOnUse">
      <path
         id="path3441"
         d="m 194.012,529.5 68.5,0 0,120.5 -68.5,0 0,-120.5 z"
         inkscape:connector-curvature="0" />
    </clipPath>
    <clipPath
       id="clipPath3419"
       clipPathUnits="userSpaceOnUse">
      <path
         id="path3421"
         d="m -0.0846,-0.2324 0,0.0046 0.0055,0 0,-0.0046 -0.0055,0"
         inkscape:connector-curvature="0" />
    </clipPath>
    <clipPath
       id="clipPath3411"
       clipPathUnits="userSpaceOnUse">
      <path
         id="path3413"
         d="m -0.48458,-1.25688 9.27782,0 0,6.16514 -9.27782,0 0,-6.16514 z"
         inkscape:connector-curvature="0" />
    </clipPath>
    <clipPath
       id="clipPath3401"
       clipPathUnits="userSpaceOnUse">
      <path
         id="path3403"
         d="M 0,0 852,0 852,672 0,672 0,0 z"
         inkscape:connector-curvature="0" />
    </clipPath>
    <clipPath
       id="clipPath3391"
       clipPathUnits="userSpaceOnUse">
      <path
         id="path3393"
         d="m 44.5,137 91.832,0 0,109 -91.832,0 0,-109 z"
         inkscape:connector-curvature="0" />
    </clipPath>
    <clipPath
       id="clipPath3375"
       clipPathUnits="userSpaceOnUse">
      <path
         id="path3377"
         d="m -1.7338,-7.04333 12.064,0 0,8.59926 -12.064,0 0,-8.59926 z"
         inkscape:connector-curvature="0" />
    </clipPath>
    <clipPath
       id="clipPath3365"
       clipPathUnits="userSpaceOnUse">
      <path
         id="path3367"
         d="M 0,0 852,0 852,672 0,672 0,0 z"
         inkscape:connector-curvature="0" />
    </clipPath>
    <clipPath
       id="clipPath3355"
       clipPathUnits="userSpaceOnUse">
      <path
         id="path3357"
         d="m 122.512,550.456 70.488,0 0,78.044 -70.488,0 0,-78.044 z"
         inkscape:connector-curvature="0" />
    </clipPath>
    <clipPath
       id="clipPath3341"
       clipPathUnits="userSpaceOnUse">
      <path
         id="path3343"
         d="m -3.73027,-7.19451 12.06404,0 0,8.76068 -12.06404,0 0,-8.76068 z"
         inkscape:connector-curvature="0" />
    </clipPath>
    <clipPath
       id="clipPath3331"
       clipPathUnits="userSpaceOnUse">
      <path
         id="path3333"
         d="M 0,0 852,0 852,672 0,672 0,0 z"
         inkscape:connector-curvature="0" />
    </clipPath>
    <clipPath
       id="clipPath3321"
       clipPathUnits="userSpaceOnUse">
      <path
         id="path3323"
         d="m 263.512,550.456 70.488,0 0,78.044 -70.488,0 0,-78.044 z"
         inkscape:connector-curvature="0" />
    </clipPath>
    <clipPath
       id="clipPath3305"
       clipPathUnits="userSpaceOnUse">
      <path
         id="path3307"
         d="m -0.0286,-0.0097 0,0.0016 0.0024,0 0,-0.0016 -0.0024,0"
         inkscape:connector-curvature="0" />
    </clipPath>
    <clipPath
       id="clipPath3297"
       clipPathUnits="userSpaceOnUse">
      <path
         id="path3299"
         d="m -0.12125,-0.07634 2.32152,0 0,1.15266 -2.32152,0 0,-1.15266 z"
         inkscape:connector-curvature="0" />
    </clipPath>
    <clipPath
       id="clipPath3287"
       clipPathUnits="userSpaceOnUse">
      <path
         id="path3289"
         d="M 0,0 852,0 852,672 0,672 0,0 z"
         inkscape:connector-curvature="0" />
    </clipPath>
    <clipPath
       id="clipPath3277"
       clipPathUnits="userSpaceOnUse">
      <path
         id="path3279"
         d="m 44.5,44.5 367,0 0,583 -367,0 0,-583 z"
         inkscape:connector-curvature="0" />
    </clipPath>
    <clipPath
       id="clipPath3263"
       clipPathUnits="userSpaceOnUse">
      <path
         id="path3265"
         clip-rule="evenodd"
         d="m 625.588,116.709 108.5,0 c 5.247,0 9.5,-4.253 9.5,-9.5 0,-5.247 -4.253,-9.5 -9.5,-9.5 l -217,0 c -5.247,0 -9.5,4.253 -9.5,9.5 0,5.247 4.253,9.5 9.5,9.5"
         inkscape:connector-curvature="0" />
    </clipPath>
    <clipPath
       id="clipPath3047"
       clipPathUnits="userSpaceOnUse">
      <path
         id="path3049"
         clip-rule="evenodd"
         d="m 625.588,116.209 108.5,0 c 4.971,0 9,-4.029 9,-9 0,-4.971 -4.029,-9 -9,-9 l -217,0 c -4.971,0 -9,4.029 -9,9 0,4.971 4.029,9 9,9"
         inkscape:connector-curvature="0" />
    </clipPath>
    <clipPath
       id="clipPath3033"
       clipPathUnits="userSpaceOnUse">
      <path
         id="path3035"
         d="m -0.025,-0.0126 0,0.0016 0.0024,0 0,-0.0016 -0.0024,0"
         inkscape:connector-curvature="0" />
    </clipPath>
    <clipPath
       id="clipPath3025"
       clipPathUnits="userSpaceOnUse">
      <path
         id="path3027"
         d="m -1.18973,-0.08109 2.31336,0 0,1.15581 -2.31336,0 0,-1.15581 z"
         inkscape:connector-curvature="0" />
    </clipPath>
    <clipPath
       id="clipPath3015"
       clipPathUnits="userSpaceOnUse">
      <path
         id="path3017"
         d="M 0,0 852,0 852,672 0,672 0,0 z"
         inkscape:connector-curvature="0" />
    </clipPath>
    <clipPath
       id="clipPath3005"
       clipPathUnits="userSpaceOnUse">
      <path
         id="path3007"
         d="m 439.5,45.5 367,0 0,583 -367,0 0,-583 z"
         inkscape:connector-curvature="0" />
    </clipPath>
    <filter
       id="filter4351"
       inkscape:label="Drop shadow"
       width="1.5"
       height="1.5"
       x="-0.25"
       y="-0.25"
       color-interpolation-filters="sRGB">
      <feGaussianBlur
         id="feGaussianBlur4353"
         in="SourceAlpha"
         stdDeviation="0.4"
         result="blur" />
      <feColorMatrix
         id="feColorMatrix4355"
         result="bluralpha"
         type="matrix"
         values="1 0 0 0 0 0 1 0 0 0 0 0 1 0 0 0 0 0 0.7 0 " />
      <feOffset
         id="feOffset4357"
         in="bluralpha"
         dx="0"
         dy="3"
         result="offsetBlur" />
      <feMerge
         id="feMerge4359">
        <feMergeNode
           id="feMergeNode4361"
           in="offsetBlur" />
        <feMergeNode
           id="feMergeNode4363"
           in="SourceGraphic" />
      </feMerge>
    </filter>
    <filter
       id="filter4365"
       inkscape:label="Drop shadow"
       width="1.5"
       height="1.5"
       x="-0.25"
       y="-0.25"
       color-interpolation-filters="sRGB">
      <feGaussianBlur
         id="feGaussianBlur4367"
         in="SourceAlpha"
         stdDeviation="0.4"
         result="blur" />
      <feColorMatrix
         id="feColorMatrix4369"
         result="bluralpha"
         type="matrix"
         values="1 0 0 0 0 0 1 0 0 0 0 0 1 0 0 0 0 0 0.7 0 " />
      <feOffset
         id="feOffset4371"
         in="bluralpha"
         dx="0"
         dy="3"
         result="offsetBlur" />
      <feMerge
         id="feMerge4373">
        <feMergeNode
           id="feMergeNode4375"
           in="offsetBlur" />
        <feMergeNode
           id="feMergeNode4377"
           in="SourceGraphic" />
      </feMerge>
    </filter>
    <filter
       id="filter4477"
       inkscape:label="Drop shadow"
       width="1.5"
       height="1.5"
       x="-0.25"
       y="-0.25"
       color-interpolation-filters="sRGB">
      <feGaussianBlur
         id="feGaussianBlur4479"
         in="SourceAlpha"
         stdDeviation="0.4"
         result="blur" />
      <feColorMatrix
         id="feColorMatrix4481"
         result="bluralpha"
         type="matrix"
         values="1 0 0 0 0 0 1 0 0 0 0 0 1 0 0 0 0 0 0.8 0 " />
      <feOffset
         id="feOffset4483"
         in="bluralpha"
         dx="-2"
         dy="-2"
         result="offsetBlur" />
      <feMerge
         id="feMerge4485">
        <feMergeNode
           id="feMergeNode4487"
           in="offsetBlur" />
        <feMergeNode
           id="feMergeNode4489"
           in="SourceGraphic" />
      </feMerge>
    </filter>
    <filter
       id="filter4505"
       inkscape:label="Drop shadow"
       width="1.5"
       height="1.5"
       x="-0.25"
       y="-0.25"
       color-interpolation-filters="sRGB">
      <feGaussianBlur
         id="feGaussianBlur4507"
         in="SourceAlpha"
         stdDeviation="0.4"
         result="blur" />
      <feColorMatrix
         id="feColorMatrix4509"
         result="bluralpha"
         type="matrix"
         values="1 0 0 0 0 0 1 0 0 0 0 0 1 0 0 0 0 0 0.8 0 " />
      <feOffset
         id="feOffset4511"
         in="bluralpha"
         dx="-2"
         dy="-2"
         result="offsetBlur" />
      <feMerge
         id="feMerge4513">
        <feMergeNode
           id="feMergeNode4515"
           in="offsetBlur" />
        <feMergeNode
           id="feMergeNode4517"
           in="SourceGraphic" />
      </feMerge>
    </filter>
    <filter
       id="filter4519"
       inkscape:label="Drop shadow"
       width="1.5"
       height="1.5"
       x="-0.25"
       y="-0.25"
       color-interpolation-filters="sRGB">
      <feGaussianBlur
         id="feGaussianBlur4521"
         in="SourceAlpha"
         stdDeviation="0.4"
         result="blur" />
      <feColorMatrix
         id="feColorMatrix4523"
         result="bluralpha"
         type="matrix"
         values="1 0 0 0 0 0 1 0 0 0 0 0 1 0 0 0 0 0 0.8 0 " />
      <feOffset
         id="feOffset4525"
         in="bluralpha"
         dx="2"
         dy="2"
         result="offsetBlur" />
      <feMerge
         id="feMerge4527">
        <feMergeNode
           id="feMergeNode4529"
           in="offsetBlur" />
        <feMergeNode
           id="feMergeNode4531"
           in="SourceGraphic" />
      </feMerge>
    </filter>
    <filter
       id="filter4533"
       inkscape:label="Drop shadow"
       width="1.5"
       height="1.5"
       x="-0.25"
       y="-0.25"
       color-interpolation-filters="sRGB">
      <feGaussianBlur
         id="feGaussianBlur4535"
         in="SourceAlpha"
         stdDeviation="0.4"
         result="blur" />
      <feColorMatrix
         id="feColorMatrix4537"
         result="bluralpha"
         type="matrix"
         values="1 0 0 0 0 0 1 0 0 0 0 0 1 0 0 0 0 0 0.8 0 " />
      <feOffset
         id="feOffset4539"
         in="bluralpha"
         dx="2"
         dy="2"
         result="offsetBlur" />
      <feMerge
         id="feMerge4541">
        <feMergeNode
           id="feMergeNode4543"
           in="offsetBlur" />
        <feMergeNode
           id="feMergeNode4545"
           in="SourceGraphic" />
      </feMerge>
    </filter>
    <filter
       id="filter4547"
       inkscape:label="Drop shadow"
       width="1.5"
       height="1.5"
       x="-0.25"
       y="-0.25"
       color-interpolation-filters="sRGB">
      <feGaussianBlur
         id="feGaussianBlur4549"
         in="SourceAlpha"
         stdDeviation="0.4"
         result="blur" />
      <feColorMatrix
         id="feColorMatrix4551"
         result="bluralpha"
         type="matrix"
         values="1 0 0 0 0 0 1 0 0 0 0 0 1 0 0 0 0 0 0.8 0 " />
      <feOffset
         id="feOffset4553"
         in="bluralpha"
         dx="2"
         dy="2"
         result="offsetBlur" />
      <feMerge
         id="feMerge4555">
        <feMergeNode
           id="feMergeNode4557"
           in="offsetBlur" />
        <feMergeNode
           id="feMergeNode4559"
           in="SourceGraphic" />
      </feMerge>
    </filter>
    <filter
       id="filter4561"
       inkscape:label="Drop shadow"
       width="1.5"
       height="1.5"
       x="-0.25"
       y="-0.25"
       color-interpolation-filters="sRGB">
      <feGaussianBlur
         id="feGaussianBlur4563"
         in="SourceAlpha"
         stdDeviation="0.4"
         result="blur" />
      <feColorMatrix
         id="feColorMatrix4565"
         result="bluralpha"
         type="matrix"
         values="1 0 0 0 0 0 1 0 0 0 0 0 1 0 0 0 0 0 0.8 0 " />
      <feOffset
         id="feOffset4567"
         in="bluralpha"
         dx="2"
         dy="2"
         result="offsetBlur" />
      <feMerge
         id="feMerge4569">
        <feMergeNode
           id="feMergeNode4571"
           in="offsetBlur" />
        <feMergeNode
           id="feMergeNode4573"
           in="SourceGraphic" />
      </feMerge>
    </filter>
    <clipPath
       id="clipPath14822"
       clipPathUnits="userSpaceOnUse">
      <path
         id="path14824"
         clip-rule="evenodd"
         d="M 0,936 0,0 1368,0 1368,936 0,936 z" />
    </clipPath>
    <clipPath
       id="clipPath14452"
       clipPathUnits="userSpaceOnUse">
      <path
         id="path14454"
         d="M 0,63 144,63 144,0 0,0 0,63 z" />
    </clipPath>
    <clipPath
       id="clipPath14428"
       clipPathUnits="userSpaceOnUse">
      <path
         id="path14430"
         d="M 0,0 144,0 144,63 0,63 0,0 z" />
    </clipPath>
    <clipPath
       id="clipPath14416"
       clipPathUnits="userSpaceOnUse">
      <path
         id="path14418"
         clip-rule="evenodd"
         d="M 0,936 0,0 1368,0 1368,936 0,936 z" />
    </clipPath>
    <clipPath
       id="clipPath14408"
       clipPathUnits="userSpaceOnUse">
      <path
         id="path14410"
         clip-rule="evenodd"
         d="m 703.8,27 0,63 144,0 0,-63 -144,0 z" />
    </clipPath>
    <clipPath
       id="clipPath14114"
       clipPathUnits="userSpaceOnUse">
      <path
         id="path14116"
         clip-rule="evenodd"
         d="M 0,936 0,0 1368,0 1368,936 0,936 z" />
    </clipPath>
    <clipPath
       id="clipPath14102"
       clipPathUnits="userSpaceOnUse">
      <path
         id="path14104"
         clip-rule="evenodd"
         d="M 0,936 0,0 1368,0 1368,936 0,936 z" />
    </clipPath>
    <clipPath
       id="clipPath14094"
       clipPathUnits="userSpaceOnUse">
      <path
         id="path14096"
         clip-rule="evenodd"
         d="m 313.2,594 0,-594 741.6,0 0,594 -741.6,0 z" />
    </clipPath>
    <clipPath
       id="clipPath14082"
       clipPathUnits="userSpaceOnUse">
      <path
         id="path14084"
         clip-rule="evenodd"
         d="M 0,936 0,0 1368,0 1368,936 0,936 z" />
    </clipPath>
    <inkscape:perspective
       id="perspective7265"
       inkscape:persp3d-origin="0.5 : 0.33333333 : 1"
       inkscape:vp_z="1 : 0.5 : 1"
       inkscape:vp_y="0 : 1000 : 0"
       inkscape:vp_x="0 : 0.5 : 1"
       sodipodi:type="inkscape:persp3d" />
    <mask
       maskUnits="userSpaceOnUse"
       id="mask3826-1">
      <flowRoot
         transform="translate(-0.8,0)"
         xml:space="preserve"
         id="flowRoot3828-8"
         style="font-size:40px;font-style:normal;font-variant:normal;font-weight:normal;font-stretch:normal;line-height:125%;letter-spacing:0px;word-spacing:0px;fill:#ffffff;fill-opacity:1;stroke:#000000;stroke-width:1;stroke-miterlimit:4;stroke-opacity:1;stroke-dasharray:none;font-family:Newtown;-inkscape-font-specification:Newtown"><flowRegion
           id="flowRegion3830-2"><rect
             id="rect3832-5"
             width="304.16666"
             height="89.351852"
             x="148.61111"
             y="505.13995"
             style="font-style:normal;font-variant:normal;font-weight:normal;font-stretch:normal;fill:#ffffff;fill-opacity:1;stroke:#000000;stroke-width:1;stroke-miterlimit:4;stroke-opacity:1;stroke-dasharray:none;font-family:Newtown;-inkscape-font-specification:Newtown" /></flowRegion><flowPara
           id="flowPara3834-8"><flowSpan
             style="font-size:30px;fill:#ffffff;fill-opacity:1;stroke:#000000;stroke-width:1;stroke-miterlimit:4;stroke-opacity:1;stroke-dasharray:none"
             id="flowSpan3836-9">HUCK</flowSpan></flowPara></flowRoot>    </mask>
    <mask
       maskUnits="userSpaceOnUse"
       id="mask5546-4">
      <flowRoot
         mask="none"
         style="font-size:40px;font-style:normal;font-variant:normal;font-weight:normal;font-stretch:normal;line-height:125%;letter-spacing:0px;word-spacing:0px;fill:#ffffff;fill-opacity:1;stroke:#000000;stroke-opacity:1;font-family:Newtown;-inkscape-font-specification:Newtown"
         id="flowRoot5548-6"
         xml:space="preserve"><flowRegion
           id="flowRegion5550-0"><rect
             style="font-style:normal;font-variant:normal;font-weight:normal;font-stretch:normal;fill:#ffffff;fill-opacity:1;stroke:#000000;stroke-opacity:1;font-family:Newtown;-inkscape-font-specification:Newtown"
             y="505.13995"
             x="148.61111"
             height="89.351852"
             width="304.16666"
             id="rect5552-1" /></flowRegion><flowPara
           id="flowPara5554-5"><flowSpan
             id="flowSpan5556-0"
             style="font-size:30px;fill:#ffffff;fill-opacity:1;stroke:#000000;stroke-opacity:1">MITH</flowSpan></flowPara></flowRoot>    </mask>
    <mask
       maskUnits="userSpaceOnUse"
       id="mask9317">
      <text
         sodipodi:linespacing="125%"
         id="text9319"
         y="734.66968"
         x="113.46154"
         style="font-size:30px;font-style:normal;font-variant:normal;font-weight:normal;font-stretch:normal;line-height:125%;letter-spacing:0px;word-spacing:0px;fill:#ffffff;fill-opacity:1;stroke:#000000;stroke-opacity:1;font-family:Newtown;-inkscape-font-specification:Newtown"
         xml:space="preserve"><tspan
           y="734.66968"
           x="113.46154"
           id="tspan9321"
           sodipodi:role="line">HUCK</tspan></text>
    </mask>
    <mask
       maskUnits="userSpaceOnUse"
       id="mask9335">
      <text
         sodipodi:linespacing="125%"
         id="text9337"
         y="423.46155"
         x="246.15385"
         style="font-size:30px;font-style:normal;font-variant:normal;font-weight:normal;font-stretch:normal;line-height:125%;letter-spacing:0px;word-spacing:0px;fill:#ffffff;fill-opacity:1;stroke:#000000;stroke-opacity:1;font-family:Newtown;-inkscape-font-specification:Newtown"
         xml:space="preserve"><tspan
           y="423.46155"
           x="246.15385"
           id="tspan9339"
           sodipodi:role="line">MITH</tspan></text>
    </mask>
  </defs>
  <metadata
     id="metadata7">
    <rdf:RDF>
      <cc:Work
         rdf:about="">
        <dc:format>image/svg+xml</dc:format>
        <dc:type
           rdf:resource="http://purl.org/dc/dcmitype/StillImage" />
        <dc:title />
      </cc:Work>
    </rdf:RDF>
  </metadata>
  <g
     inkscape:label="Layer 1"
     inkscape:groupmode="layer"
     id="layer1"
     transform="translate(0,-332.362)">
    <text
       xml:space="preserve"
       style="font-size:12px;font-style:normal;font-variant:normal;font-weight:normal;font-stretch:normal;line-height:124.00000095%;letter-spacing:0px;word-spacing:0px;fill:#000000;fill-opacity:1;stroke:none;font-family:Centennial-Light;-inkscape-font-specification:Centennial-Light"
       x="296.07144"
       y="159.80878"
       id="text5143"
       sodipodi:linespacing="124%"
       transform="translate(0,308.2677)"><tspan
         sodipodi:role="line"
         id="tspan5145"
         x="296.07144"
         y="159.80878" /></text>
    <flowRoot
       xml:space="preserve"
       id="flowRoot4637-5"
       style="font-size:10px;font-style:normal;font-variant:normal;font-weight:normal;font-stretch:normal;line-height:124.00000095%;letter-spacing:0px;word-spacing:0px;fill:#000000;fill-opacity:1;stroke:none;font-family:Linux Libertine O;-inkscape-font-specification:Linux Libertine O"
       transform="translate(0.25253819,440.77671)"><flowRegion
         id="flowRegion4639-5"><rect
           id="rect4641-1"
           width="258.59906"
           height="82.832512"
           x="120.71323"
           y="292.09631"
           style="font-size:10px;font-style:normal;font-variant:normal;font-weight:normal;font-stretch:normal;font-family:Linux Libertine O;-inkscape-font-specification:Linux Libertine O" /></flowRegion><flowPara
         id="flowPara4643-7" /></flowRoot>    <rect
       style="fill:none;stroke:none"
       id="rect5092"
       width="3.3002152e-08"
       height="0"
       x="480.83261"
       y="688.07611"
       transform="translate(0,272.36218)"
       ry="0" />
    <g
       id="g3953"
       transform="translate(0,-5.9998977)">
      <text
         transform="scale(0.78319391,1.276823)"
         sodipodi:linespacing="124%"
         id="text4531-5"
         y="365.22183"
         x="161.37407"
         style="font-size:34.07332611px;font-style:normal;font-variant:normal;font-weight:normal;font-stretch:normal;line-height:124.00000095%;letter-spacing:-1.72070301px;word-spacing:0px;fill:#000000;fill-opacity:1;stroke:none;font-family:Witches;-inkscape-font-specification:Linux Libertine Capitals O"
         xml:space="preserve"><tspan
           style="font-size:61.33198547px;font-style:normal;font-variant:normal;font-weight:normal;font-stretch:normal;letter-spacing:-1.72070301px;fill:#000000;fill-opacity:1;font-family:Linux Libertine Capitals O;-inkscape-font-specification:Linux Libertine Capitals O"
           y="365.22183"
           x="161.37407"
           id="tspan4533-8"
           sodipodi:role="line">Calvinisme, </tspan></text>
      <text
         transform="scale(0.78319391,1.276823)"
         sodipodi:linespacing="124%"
         id="text4531-5-5"
         y="410.14062"
         x="121.27419"
         style="font-size:34.07332611px;font-style:normal;font-variant:normal;font-weight:normal;font-stretch:normal;line-height:124.00000095%;letter-spacing:-1.72070301px;word-spacing:0px;fill:#000000;fill-opacity:1;stroke:none;font-family:Witches;-inkscape-font-specification:Linux Libertine Capitals O"
         xml:space="preserve"><tspan
           style="font-size:61.33198547px;font-style:normal;font-variant:normal;font-weight:normal;font-stretch:normal;letter-spacing:-1.72070301px;fill:#000000;fill-opacity:1;font-family:Linux Libertine Capitals O;-inkscape-font-specification:Linux Libertine Capitals O"
           y="410.14062"
           x="121.27419"
           id="tspan4533-8-4"
           sodipodi:role="line">Arminianisme</tspan></text>
      <text
         transform="scale(0.78319391,1.276823)"
         sodipodi:linespacing="124%"
         id="text4531-5-5-5"
         y="455.05942"
         x="92.866837"
         style="font-size:34.07332611px;font-style:normal;font-variant:normal;font-weight:normal;font-stretch:normal;line-height:124.00000095%;letter-spacing:-1.72070301px;word-spacing:0px;fill:#000000;fill-opacity:1;stroke:none;font-family:Witches;-inkscape-font-specification:Linux Libertine Capitals O"
         xml:space="preserve"><tspan
           style="font-size:61.33198547px;font-style:normal;font-variant:normal;font-weight:normal;font-stretch:normal;letter-spacing:-1.72070301px;fill:#000000;fill-opacity:1;font-family:Linux Libertine Capitals O;-inkscape-font-specification:Linux Libertine Capitals O"
           y="455.05942"
           x="92.866837"
           id="tspan4533-8-4-8"
           sodipodi:role="line">&amp; Parole de Dieu</tspan></text>
    </g>
    <text
       xml:space="preserve"
       style="font-size:16px;font-style:normal;font-variant:normal;font-weight:normal;font-stretch:normal;line-height:125%;letter-spacing:0px;word-spacing:0px;fill:#000000;fill-opacity:1;stroke:none;font-family:Linux Biolinum O;-inkscape-font-specification:Linux Biolinum O"
       x="123.51186"
       y="982.89612"
       id="text3661"
       sodipodi:linespacing="125%"><tspan
         sodipodi:role="line"
         x="123.51186"
         y="982.89612"
         id="tspan3268">10 avenue Aimé Martin <tspan
   style="font-size:16px;font-style:normal;font-variant:normal;font-weight:normal;font-stretch:normal;fill:#4d4d4d;fill-opacity:1;font-family:Linux Biolinum O;-inkscape-font-specification:Linux Biolinum O"
   id="tspan4042">•</tspan> 06200 Nice</tspan></text>
    <g
       id="g3931"
       transform="translate(0.41205409,-36.842144)">
      <rect
         ry="12.621831"
         y="652.13855"
         x="84.145264"
         height="25.243662"
         width="316.88531"
         id="rect3161"
         style="opacity:0.89743593;fill:#000000;fill-opacity:1;stroke:#000000;stroke-width:1.78333032;stroke-miterlimit:4;stroke-opacity:1;stroke-dasharray:none" />
      <text
         sodipodi:linespacing="124%"
         id="text4723"
         y="668.97235"
         x="96.145523"
         style="font-size:13px;font-style:normal;font-variant:normal;font-weight:bold;font-stretch:normal;line-height:124.00000095%;letter-spacing:1.39413142px;word-spacing:0px;fill:#ffffff;fill-opacity:1;stroke:none;font-family:Linux Biolinum O;-inkscape-font-specification:Linux Biolinum O Bold"
         xml:space="preserve"><tspan
           style="font-size:13px;font-weight:bold;fill:#ffffff;fill-opacity:1;-inkscape-font-specification:Linux Biolinum O Bold"
           y="668.97235"
           x="96.145523"
           id="tspan4725"
           sodipodi:role="line">LE POINT DE VUE DE CALVARY CHAPEL</tspan></text>
    </g>
    <g
       id="g3361"
       transform="matrix(0.40857805,0,0,0.40857805,15.875122,792.9187)">
      <path
         inkscape:connector-curvature="0"
         id="path3050-3-49"
         d="m 666.0929,365.00408 c -0.1741,0.0327 -0.33098,0.48474 -0.47955,1.35369 -0.13308,0.77828 -0.6404,2.55076 -1.12909,3.93966 -0.48869,1.3889 -1.32484,3.81736 -1.85753,5.39048 l -0.96519,2.85914 -0.67988,0.12749 c -0.37326,0.07 -1.52447,0.0675 -2.55562,-0.006 -4.93436,-0.35219 -7.48813,-1.62435 -7.78827,-3.87289 -0.0841,-0.6299 -0.19499,-0.81617 -0.51599,-0.86198 -0.3459,-0.0493 -0.4306,0.067 -0.54026,0.75272 -0.20359,1.27322 -1.29026,3.41926 -3.2537,6.43458 -2.13385,3.277 -2.68855,4.5425 -2.83486,6.47707 -0.36442,4.81842 2.26384,8.18519 7.26015,9.29373 1.80982,0.40154 5.37645,0.57712 7.39977,0.36422 l 1.60257,-0.16997 0,0.99554 c 0,2.13299 0.9151,3.74359 2.46456,4.35245 0.79606,0.31279 1.10855,1.08359 0.99554,2.44635 -0.13309,1.60502 0.26756,1.36558 1.29299,-0.77094 1.33463,-2.78075 2.52116,-3.92627 4.97769,-4.79558 1.14612,-0.40559 1.59647,-0.44228 5.61509,-0.46135 4.23021,-0.0201 4.42134,-0.0387 5.90647,-0.5524 5.79443,-2.00425 9.57803,-6.93105 10.69597,-13.91933 0.4184,-2.61553 0.43877,-2.52528 -0.49778,-2.52528 -0.66773,0 -0.95015,0.13774 -1.74219,0.84986 -2.04755,1.84092 -3.73926,2.24448 -7.99466,1.88788 -2.97944,-0.24969 -5.14166,-0.12735 -6.43459,0.36422 -0.28252,0.10741 -0.51597,0.13548 -0.51597,0.0668 0,-0.47273 3.40355,-6.14595 6.07035,-10.12537 0.74006,-1.10433 1.31613,-2.03221 1.28085,-2.05785 -0.0352,-0.0255 -0.37717,-0.23216 -0.75879,-0.46135 l -0.69203,-0.41887 -1.02588,0.39459 c -6.35391,2.41428 -11.08685,0.21975 -12.62028,-5.84576 -0.26332,-1.04154 -0.48257,-1.54245 -0.67989,-1.50545 z m 0.72238,8.14035 c 0.0704,-0.007 0.13858,0.0393 0.23067,0.10927 1.34389,1.02103 4.42182,1.78656 7.81862,1.94252 2.50056,0.1148 2.57161,0.12644 2.4585,0.52206 -0.23328,0.81593 -2.14526,3.78328 -4.52242,7.01124 -1.33752,1.81627 -2.77836,3.85168 -3.19908,4.52243 -0.74463,1.18719 -0.75573,1.2297 -0.41279,1.60865 0.19377,0.2141 0.64303,0.57359 1.00162,0.79521 l 0.65559,0.40065 1.01375,-0.95305 c 0.55657,-0.5244 1.42226,-1.15148 1.93038,-1.39618 1.95278,-0.9404 2.63465,-1.02631 9.17839,-1.17158 3.41882,-0.0759 6.23886,-0.12474 6.26461,-0.10926 0.0258,0.0155 -0.0902,0.54503 -0.25496,1.17765 -1.02074,3.9189 -5.20866,7.84765 -9.84005,9.22695 -1.56713,0.4667 -3.13376,0.53743 -6.17356,0.29137 -3.31767,-0.26854 -5.26499,0.42841 -7.40584,2.64061 -0.6026,0.62269 -1.12707,1.12773 -1.16552,1.12301 -0.0384,-0.004 -0.38628,-0.17305 -0.77092,-0.37636 -1.35475,-0.71604 -1.717,-2.0245 -1.09874,-3.98822 0.58116,-1.84587 0.59027,-2.02189 0.085,-2.2521 -0.35769,-0.16299 -0.74268,-0.12055 -1.74219,0.18817 -3.0414,0.93939 -6.33107,1.2414 -8.52886,0.78309 -2.33376,-0.48669 -4.49507,-1.98013 -5.46332,-3.7697 -0.62333,-1.15209 -0.60508,-4.46413 0.0365,-6.50743 0.3635,-1.15783 2.42478,-6.11847 2.64668,-6.36781 0.0286,-0.0321 0.33479,0.20079 0.67987,0.51598 1.30129,1.18854 4.42097,1.54934 10.76882,1.2505 l 3.28407,-0.15783 0.25496,-1.06839 c 0.14029,-0.58761 0.6777,-2.21323 1.18979,-3.61793 0.67196,-1.84329 0.86918,-2.35237 1.08052,-2.37352 z"
         style="fill:#000000" />
      <text
         sodipodi:linespacing="83.999997%"
         id="text2991-3-55"
         y="355.32526"
         x="418.31488"
         style="font-size:40px;font-style:normal;font-variant:normal;font-weight:normal;font-stretch:normal;line-height:83.99999738%;letter-spacing:0px;word-spacing:0px;fill:#000000;fill-opacity:1;stroke:none;font-family:Linux Libertine Capitals O;-inkscape-font-specification:Linux Libertine Capitals O"
         xml:space="preserve"><tspan
           style="font-size:48px;font-style:normal;font-variant:normal;font-weight:bold;font-stretch:normal;line-height:83.99999738%;font-family:Linux Libertine Capitals O;-inkscape-font-specification:Linux Libertine Capitals O Bold"
           id="tspan2995-4-7"
           y="355.32526"
           x="418.31488"
           sodipodi:role="line">La Colombe</tspan><tspan
           style="font-size:48px;font-style:normal;font-variant:normal;font-weight:bold;font-stretch:normal;line-height:83.99999738%;font-family:Linux Libertine Capitals O;-inkscape-font-specification:Linux Libertine Capitals O Bold"
           id="tspan2999-4-3"
           y="395.64526"
           x="418.31488"
           sodipodi:role="line">Calvary</tspan></text>
    </g>
    <text
       xml:space="preserve"
       style="font-size:40px;font-style:normal;font-variant:normal;font-weight:normal;font-stretch:normal;line-height:125%;letter-spacing:0px;word-spacing:0px;fill:#000000;fill-opacity:1;stroke:none;font-family:Newtown;-inkscape-font-specification:Newtown"
       x="126.97066"
       y="709.09344"
       id="text8797"
       sodipodi:linespacing="125%"><tspan
         sodipodi:role="line"
         id="tspan8799"
         x="126.97066"
         y="709.09344">C<tspan
   style="font-size:30px"
   id="tspan3158">HUCK</tspan></tspan></text>
    <text
       xml:space="preserve"
       style="font-size:40px;font-style:normal;font-variant:normal;font-weight:normal;font-stretch:normal;line-height:125%;letter-spacing:0px;word-spacing:0px;fill:#000000;fill-opacity:1;stroke:none;font-family:Newtown;-inkscape-font-specification:Newtown"
       x="253.00381"
       y="708.62634"
       id="text9323"
       sodipodi:linespacing="125%"><tspan
         sodipodi:role="line"
         id="tspan9325"
         x="253.00381"
         y="708.62634">S<tspan
   style="font-size:30px"
   id="tspan3160">MITH</tspan></tspan></text>
  </g>
</svg>
